HIERARCHY
ROOT Hips
{
	OFFSET 0.00000 0.00000 0.00000
	CHANNELS 6 Xposition Yposition Zposition Zrotation Yrotation Xrotation 
	JOINT LHipJoint
	{
		OFFSET 0 0 0
		CHANNELS 3 Zrotation Yrotation Xrotation
		JOINT LeftUpLeg
		{
			OFFSET 1.53927 -1.56553 0.51726
			CHANNELS 3 Zrotation Yrotation Xrotation
			JOINT LeftLeg
			{
				OFFSET 2.38199 -6.54447 0.00000
				CHANNELS 3 Zrotation Yrotation Xrotation
				JOINT LeftFoot
				{
					OFFSET 2.35499 -6.47028 0.00000
					CHANNELS 3 Zrotation Yrotation Xrotation
					JOINT LeftToeBase
					{
						OFFSET 0.13641 -0.37478 1.84251
						CHANNELS 3 Zrotation Yrotation Xrotation
						End Site
						{
							OFFSET 0.00000 -0.00000 0.95212
						}
					}
				}
			}
		}
	}
	JOINT RHipJoint
	{
		OFFSET 0 0 0
		CHANNELS 3 Zrotation Yrotation Xrotation
		JOINT RightUpLeg
		{
			OFFSET -1.43919 -1.56553 0.51726
			CHANNELS 3 Zrotation Yrotation Xrotation
			JOINT RightLeg
			{
				OFFSET -2.34860 -6.45274 0.00000
				CHANNELS 3 Zrotation Yrotation Xrotation
				JOINT RightFoot
				{
					OFFSET -2.25563 -6.19730 0.00000
					CHANNELS 3 Zrotation Yrotation Xrotation
					JOINT RightToeBase
					{
						OFFSET -0.19755 -0.54277 1.84912
						CHANNELS 3 Zrotation Yrotation Xrotation
						End Site
						{
							OFFSET -0.00000 -0.00000 0.97032
						}
					}
				}
			}
		}
	}
	JOINT LowerBack
	{
		OFFSET 0 0 0
		CHANNELS 3 Zrotation Yrotation Xrotation
		JOINT Spine
		{
			OFFSET -0.06402 1.88434 -0.00445
			CHANNELS 3 Zrotation Yrotation Xrotation
			JOINT Spine1
			{
				OFFSET 0.00756 1.88511 0.04237
				CHANNELS 3 Zrotation Yrotation Xrotation
				JOINT Neck
				{
					OFFSET 0 0 0
					CHANNELS 3 Zrotation Yrotation Xrotation
					JOINT Neck1
					{
						OFFSET -0.06230 1.34710 0.03308
						CHANNELS 3 Zrotation Yrotation Xrotation
						JOINT Head
						{
							OFFSET -0.02442 1.34501 -0.13654
							CHANNELS 3 Zrotation Yrotation Xrotation
							End Site
							{
								OFFSET -0.00508 1.35584 -0.05075
							}
						}
					}
				}
				JOINT LeftShoulder
				{
					OFFSET 0 0 0
					CHANNELS 3 Zrotation Yrotation Xrotation
					JOINT LeftArm
					{
						OFFSET 2.76911 0.54460 0.39412
						CHANNELS 3 Zrotation Yrotation Xrotation
						JOINT LeftForeArm
						{
							OFFSET 4.40919 -0.00000 -0.00000
							CHANNELS 3 Zrotation Yrotation Xrotation
							JOINT LeftHand
							{
								OFFSET 3.03857 -0.00000 -0.00000
								CHANNELS 3 Zrotation Yrotation Xrotation
								JOINT LeftFingerBase
								{
									OFFSET 0 0 0
									CHANNELS 3 Zrotation Yrotation Xrotation
									JOINT LeftHandIndex1
									{
										OFFSET 0.52321 -0.00000 -0.00000
										CHANNELS 3 Zrotation Yrotation Xrotation
										End Site
										{
											OFFSET 0.42182 -0.00000 -0.00000
										}
									}
								}
								JOINT LThumb
								{
									OFFSET 0 0 0
									CHANNELS 3 Zrotation Yrotation Xrotation
									End Site
									{
										OFFSET 0.42826 -0.00000 0.42826
									}
								}
							}
						}
					}
				}
				JOINT RightShoulder
				{
					OFFSET 0 0 0
					CHANNELS 3 Zrotation Yrotation Xrotation
					JOINT RightArm
					{
						OFFSET -2.99050 0.75949 0.48975
						CHANNELS 3 Zrotation Yrotation Xrotation
						JOINT RightForeArm
						{
							OFFSET -4.61969 -0.00000 -0.00000
							CHANNELS 3 Zrotation Yrotation Xrotation
							JOINT RightHand
							{
								OFFSET -3.09382 -0.00000 -0.00000
								CHANNELS 3 Zrotation Yrotation Xrotation
								JOINT RightFingerBase
								{
									OFFSET 0 0 0
									CHANNELS 3 Zrotation Yrotation Xrotation
									JOINT RightHandIndex1
									{
										OFFSET -0.50090 -0.00000 -0.00000
										CHANNELS 3 Zrotation Yrotation Xrotation
										End Site
										{
											OFFSET -0.40384 -0.00000 -0.00000
										}
									}
								}
								JOINT RThumb
								{
									OFFSET 0 0 0
									CHANNELS 3 Zrotation Yrotation Xrotation
									End Site
									{
										OFFSET -0.41000 -0.00000 0.41000
									}
								}
							}
						}
					}
				}
			}
		}
	}
}
MOTION
Frames: 10
Frame Time: .0083333
11.1982 15.8078 -3.7216 9.3045 -85.7166 10.3895 0.0000 0.0000 0.0000 12.9609 -31.1022 -53.6023 7.9546 16.0858 52.3990 0.3225 1.4839 10.3110 0.2215 -3.0294 -8.3607 0.0000 0.0000 0.0000 18.3779 13.3476 -35.8238 -3.6811 -11.7235 34.7608 -1.0344 -2.9194 -20.4729 -0.1534 -2.5235 6.9549 -1.8710 2.9340 31.3527 -4.2513 1.7243 10.3033 -4.2427 0.4698 -5.3850 5.8515 11.5293 -4.1385 -22.5302 16.1769 2.0609 -6.8665 7.6144 3.7376 0.0000 0.0000 0.0000 -74.2511 7.1930 20.5281 102.7506 -59.3767 -71.0192 -0.0000 0.0000 -1.1279 55.1379 -9.9797 -13.9699 -7.1250 0.0000 -0.0000 18.8217 13.4827 -14.7502 0.0000 0.0000 0.0000 70.8414 -20.9019 -1.2789 -91.5493 59.9909 -61.3417 0.0000 -0.0000 -25.8780 -21.6514 -36.3535 13.2413 7.1250 -0.0000 -0.0000 16.8310 -67.6480 -9.2697
11.2304 15.7831 -3.7290 9.1834 -85.9571 10.5400 0.0000 0.0000 0.0000 12.6578 -30.7738 -53.3171 7.8927 16.0397 52.1752 0.2821 2.5435 9.4761 0.1092 -2.1303 -5.8658 0.0000 0.0000 0.0000 18.4088 13.4516 -36.4407 -3.8176 -11.9137 35.4274 -1.0343 -2.7827 -20.4029 -0.1451 -2.4548 6.7644 -1.6933 2.9760 31.3430 -4.1879 1.8381 10.2480 -4.3145 0.5266 -5.4328 5.6410 11.4668 -4.1630 -22.2667 16.0796 2.0334 -6.7618 7.5715 3.6760 -0.0000 0.0000 0.0000 -74.5415 8.1281 19.6450 103.0817 -59.3434 -71.3041 -0.0000 0.0000 -1.7365 55.0041 -9.2489 -12.9295 -7.1250 0.0000 -0.0000 18.9516 14.6759 -14.3532 -0.0000 0.0000 0.0000 69.7288 -21.2395 -2.1837 -92.5120 59.9761 -62.1753 0.0000 -0.0000 -26.2916 -22.4079 -36.6438 13.8255 7.1250 -0.0000 -0.0000 16.2206 -68.1519 -9.1112
11.2549 15.7675 -3.7388 10.2601 -86.1627 9.3460 0.0000 0.0000 0.0000 12.1579 -30.5542 -52.7136 7.7773 15.9530 51.7564 0.2409 3.2116 8.7201 0.0480 -1.4135 -3.8873 0.0000 0.0000 0.0000 18.4357 13.4205 -36.8619 -3.9588 -12.1053 36.1056 -1.0179 -2.8021 -20.2616 -0.1161 -2.1964 6.0486 -1.6136 3.0520 31.3519 -4.0752 1.9630 10.2872 -4.2756 0.5844 -5.3860 5.2530 11.3702 -4.6848 -21.8782 16.0349 2.5659 -6.5483 7.4842 3.8473 0.0000 0.0000 0.0000 -74.5716 8.8687 18.7719 103.1299 -59.3385 -71.3456 -0.0000 0.0000 -2.0781 55.1108 -9.4386 -13.2338 -7.1250 0.0000 -0.0000 18.9614 14.3423 -14.5054 0.0000 0.0000 0.0000 68.5122 -21.5374 -3.1984 -93.6916 59.9484 -63.1964 0.0000 -0.0000 -26.4424 -22.4232 -36.8974 13.9146 7.1250 -0.0000 -0.0000 16.4932 -68.3959 -9.3581
11.2779 15.7541 -3.7540 14.0516 -86.4314 5.5352 0.0000 0.0000 0.0000 11.6617 -30.3983 -52.1341 7.6065 15.8221 51.1327 0.2057 3.6383 8.0850 0.0146 -0.7801 -2.1438 0.0000 0.0000 0.0000 18.2380 13.5320 -37.3073 -4.0970 -12.2883 36.7597 -0.9999 -2.7412 -20.0647 -0.1489 -2.4870 6.8537 -1.9120 3.1916 31.0785 -3.9813 2.0745 10.3225 -4.0219 0.6342 -5.2312 5.1560 11.2885 -5.4300 -21.4429 16.0732 3.5519 -6.3383 7.3978 4.2240 0.0000 -0.0000 0.0000 -74.4357 9.6714 17.7077 103.4041 -59.3101 -71.5814 -0.0000 0.0000 -2.1738 55.1615 -9.3530 -13.1429 -7.1250 0.0000 -0.0000 19.0171 14.4604 -14.5023 0.0000 -0.0000 0.0000 67.0743 -21.8968 -3.8452 -95.1872 59.8981 -64.4907 0.0000 -0.0000 -26.9907 -21.7331 -37.4157 13.6147 7.1250 -0.0000 -0.0000 17.9750 -68.6666 -10.3279
11.3046 15.7416 -3.7730 19.2828 -86.7051 0.1638 0.0000 0.0000 0.0000 11.1557 -30.2658 -51.5058 7.4372 15.6893 50.5092 0.1682 3.9465 7.3812 0.0001 0.0489 0.1343 0.0000 0.0000 0.0000 17.9825 13.7429 -37.5947 -4.2318 -12.4626 37.3887 -0.9987 -2.6280 -19.9975 -0.2050 -2.9152 8.0427 -2.2676 3.4346 31.0848 -3.8440 2.2825 10.3434 -3.7332 0.7248 -5.2198 4.9463 11.0274 -6.1407 -20.8267 15.7982 4.2051 -6.0981 7.1908 4.4285 -0.0000 -0.0000 0.0000 -74.1901 10.3184 16.8761 104.0106 -59.2451 -72.1028 -0.0000 0.0000 -2.1684 55.1932 -8.9404 -12.6010 -7.1250 0.0000 -0.0000 19.1566 15.1020 -14.3417 -0.0000 -0.0000 0.0000 65.5073 -22.3593 -4.5628 -96.6717 59.8311 -65.7746 0.0000 -0.0000 -27.5418 -21.3652 -38.2472 13.6133 7.1250 -0.0000 -0.0000 19.4977 -69.3172 -11.5098
11.3307 15.7242 -3.7799 22.2648 -85.9197 -3.1863 0.0000 0.0000 0.0000 10.7277 -30.9786 -51.0524 7.2856 15.5677 49.9464 0.1415 3.9404 6.8201 0.0028 -0.3406 -0.9360 0.0000 0.0000 0.0000 17.7076 13.1395 -37.8151 -4.3801 -12.6497 38.0708 -1.0270 -2.7113 -20.3004 -0.1991 -2.8729 7.9252 -1.9446 3.1367 31.4658 -3.6873 1.9952 10.4823 -3.6569 0.5862 -5.2433 4.7862 11.0122 -6.0012 -21.0354 15.8119 4.2649 -6.1443 7.1897 4.4312 0.0000 0.0000 0.0000 -73.7319 10.6928 16.1531 104.5611 -59.1835 -72.5757 -0.0000 0.0000 -2.3547 55.2391 -9.0265 -12.7385 -7.1250 0.0000 -0.0000 19.1595 14.9509 -14.4103 0.0000 0.0000 0.0000 63.8136 -22.6241 -5.3843 -97.9931 59.7572 -66.9166 0.0000 -0.0000 -27.8605 -21.3289 -39.0154 13.8100 7.1250 -0.0000 -0.0000 20.6052 -70.0034 -12.4960
11.3608 15.6998 -3.7993 25.5324 -86.1802 -6.3212 0.0000 0.0000 0.0000 10.5643 -30.5823 -51.0129 7.2169 15.5118 49.6898 0.1139 3.8976 6.1892 0.0076 -0.5635 -1.5486 0.0000 0.0000 0.0000 17.4758 13.4834 -38.4692 -4.5348 -12.8399 38.7721 -1.0308 -2.6335 -20.2971 -0.1753 -2.6973 7.4372 -2.1731 3.3228 31.1078 -3.5805 2.1941 10.5025 -3.4573 0.6795 -5.0629 3.7999 10.8956 -7.5765 -19.6062 15.9538 6.2257 -5.4302 7.0639 5.0995 0.0000 -0.0000 0.0000 -72.9559 10.9278 15.3373 104.5664 -59.1829 -72.5802 -0.0000 0.0000 -2.5083 55.5089 -9.8386 -13.9664 -7.1250 0.0000 -0.0000 19.0854 13.5757 -14.9431 0.0000 -0.0000 0.0000 62.1089 -22.7579 -6.2546 -99.5514 59.6525 -68.2621 0.0000 -0.0000 -28.0842 -21.3682 -39.9236 14.0953 7.1250 -0.0000 -0.0000 21.9159 -70.8290 -13.7130
11.3944 15.6872 -3.8098 27.0330 -85.6335 -8.1457 0.0000 0.0000 0.0000 10.1032 -30.8474 -50.7840 7.2011 15.4989 49.6307 0.0920 3.5869 5.5796 0.0001 0.0713 0.1960 0.0000 0.0000 0.0000 17.2658 12.9987 -38.7527 -4.7021 -13.0403 39.5195 -1.0386 -2.5994 -20.3527 -0.1970 -2.8584 7.8849 -1.9355 3.0983 31.5319 -3.4940 1.9671 10.5272 -3.4363 0.5703 -5.2316 4.1522 10.6109 -7.0232 -19.9450 15.4551 5.6450 -5.6800 6.8848 4.8247 -0.0000 -0.0000 0.0000 -71.8254 11.1568 14.5277 104.8091 -59.1549 -72.7886 -0.0000 0.0000 -2.6252 55.7405 -9.9672 -14.2581 -7.1250 0.0000 -0.0000 19.1865 13.2900 -15.1557 -0.0000 -0.0000 0.0000 60.4559 -22.9980 -7.2221 -101.4804 59.4961 -69.9255 0.0000 -0.0000 -28.3409 -21.4028 -40.8000 14.3653 7.1250 -0.0000 -0.0000 23.3033 -71.6113 -15.0061
11.4395 15.6664 -3.8133 27.5054 -85.2072 -8.6928 0.0000 0.0000 0.0000 9.9520 -31.0232 -51.0449 7.2435 15.5335 49.7892 0.0661 3.4598 4.8360 0.0072 0.5462 1.5008 0.0000 0.0000 0.0000 17.0338 12.6701 -39.4009 -4.8796 -13.2469 40.2997 -1.0224 -2.5601 -20.1843 -0.2552 -3.2501 8.9759 -1.5670 2.8453 31.6949 -3.4485 1.7601 10.5434 -3.5320 0.4767 -5.2857 4.6244 10.4310 -6.9260 -20.3489 15.1993 5.6224 -5.9130 6.7578 4.8421 -0.0000 0.0000 0.0000 -71.0487 11.1927 13.7459 105.8886 -59.0243 -73.7148 -0.0000 0.0000 -2.6201 55.3112 -8.5833 -12.1684 -7.1250 0.0000 -0.0000 19.3340 15.6314 -14.2562 -0.0000 0.0000 0.0000 58.8483 -23.0795 -8.2800 -103.4093 59.3096 -71.5858 0.0000 -0.0000 -28.5561 -21.5180 -40.2425 14.2900 7.1250 -0.0000 -0.0000 22.2339 -71.1613 -14.0793
11.4820 15.6418 -3.8177 28.1218 -84.8524 -9.1348 0.0000 0.0000 0.0000 9.8843 -31.0501 -51.5308 7.2962 15.5763 49.9860 0.0391 3.4309 3.9747 0.0042 0.4200 1.1541 0.0000 0.0000 0.0000 16.6937 12.5806 -40.2901 -5.0711 -13.4634 41.1288 -1.0266 -2.4331 -20.1616 -0.3466 -3.7830 10.4670 -1.1764 2.6308 31.2710 -3.4372 1.6329 10.6812 -3.6820 0.4273 -4.9325 4.9899 10.2654 -6.8589 -20.6094 14.9774 5.7048 -6.0801 6.6438 4.8775 0.0000 0.0000 0.0000 -69.7298 10.8190 13.0372 106.4272 -58.9554 -74.1764 -0.0000 0.0000 -3.1515 54.9783 -7.9060 -11.1048 -7.1250 0.0000 -0.0000 19.3298 16.8070 -13.7251 0.0000 0.0000 0.0000 57.1899 -22.6912 -9.2981 -104.5266 59.1874 -72.5460 0.0000 -0.0000 -28.5647 -21.8110 -38.8948 14.1052 7.1250 -0.0000 -0.0000 19.8287 -70.0506 -12.0329
